<svg width="214" height="90" viewBox="0 0 214 90" fill="none" xmlns="http://www.w3.org/2000/svg">
<g clip-path="url(#clip0_2_37)">
<path d="M14.554 82H11.926L9.478 72.73L7.03 82H4.42L1 69.13H3.61L5.824 78.814L8.416 69.13H10.594L13.204 78.958L15.436 69.13H17.956L14.554 82ZM25.6309 79.246L26.8729 80.704C26.3929 81.22 25.8229 81.616 25.1629 81.892C24.5149 82.156 23.8129 82.288 23.0569 82.288C22.0729 82.288 21.2089 82.084 20.4649 81.676C19.7209 81.268 19.1389 80.704 18.7189 79.984C18.2989 79.252 18.0889 78.418 18.0889 77.482C18.0889 76.558 18.2869 75.736 18.6829 75.016C19.0789 74.284 19.6189 73.708 20.3029 73.288C20.9869 72.868 21.7669 72.658 22.6429 72.658C23.4709 72.658 24.2029 72.862 24.8389 73.27C25.4869 73.678 25.9909 74.242 26.3509 74.962C26.7229 75.67 26.9089 76.48 26.9089 77.392V78.184H20.5549C20.6749 78.88 20.9509 79.426 21.3829 79.822C21.8269 80.218 22.4149 80.416 23.1469 80.416C24.1669 80.416 24.9949 80.026 25.6309 79.246ZM22.6069 74.512C22.0429 74.512 21.5809 74.704 21.2209 75.088C20.8729 75.472 20.6509 76 20.5549 76.672H24.5509C24.4789 75.976 24.2749 75.442 23.9389 75.07C23.6029 74.698 23.1589 74.512 22.6069 74.512ZM31.3743 82H28.9983V69.04H31.3743V82ZM40.5617 79.048L42.0377 80.524C41.5817 81.076 41.0237 81.508 40.3637 81.82C39.7037 82.132 38.9897 82.288 38.2217 82.288C37.2977 82.288 36.4757 82.084 35.7557 81.676C35.0477 81.256 34.4897 80.686 34.0817 79.966C33.6737 79.234 33.4697 78.4 33.4697 77.464C33.4697 76.516 33.6677 75.682 34.0637 74.962C34.4717 74.242 35.0297 73.678 35.7377 73.27C36.4577 72.862 37.2857 72.658 38.2217 72.658C39.8297 72.658 41.1017 73.246 42.0377 74.422L40.5437 75.898C39.9557 75.058 39.2297 74.638 38.3657 74.638C37.6577 74.638 37.0757 74.896 36.6197 75.412C36.1637 75.928 35.9357 76.612 35.9357 77.464C35.9357 78.316 36.1637 79.006 36.6197 79.534C37.0877 80.05 37.6757 80.308 38.3837 80.308C39.2717 80.308 39.9977 79.888 40.5617 79.048ZM47.6959 82.288C46.7599 82.288 45.9379 82.084 45.2299 81.676C44.5219 81.256 43.9639 80.686 43.5559 79.966C43.1599 79.234 42.9619 78.4 42.9619 77.464C42.9619 76.528 43.1599 75.7 43.5559 74.98C43.9639 74.248 44.5219 73.678 45.2299 73.27C45.9379 72.862 46.7599 72.658 47.6959 72.658C48.6319 72.658 49.4539 72.862 50.1619 73.27C50.8819 73.678 51.4459 74.248 51.8539 74.98C52.2619 75.7 52.4659 76.528 52.4659 77.464C52.4659 78.4 52.2619 79.234 51.8539 79.966C51.4459 80.686 50.8819 81.256 50.1619 81.676C49.4539 82.084 48.6319 82.288 47.6959 82.288ZM47.6959 80.308C48.3799 80.308 48.9319 80.044 49.3519 79.516C49.7839 78.988 49.9999 78.304 49.9999 77.464C49.9999 76.636 49.7839 75.958 49.3519 75.43C48.9319 74.902 48.3799 74.638 47.6959 74.638C47.0239 74.638 46.4779 74.902 46.0579 75.43C45.6379 75.958 45.4279 76.636 45.4279 77.464C45.4279 78.304 45.6379 78.988 46.0579 79.516C46.4779 80.044 47.0239 80.308 47.6959 80.308ZM68.2369 82H65.8609V76.69C65.8609 76.006 65.7289 75.496 65.4649 75.16C65.2129 74.812 64.8649 74.638 64.4209 74.638C63.9409 74.638 63.5089 74.866 63.1249 75.322C62.7529 75.766 62.5669 76.498 62.5669 77.518V82H60.1909V76.69C60.1909 76.006 60.0649 75.496 59.8129 75.16C59.5609 74.812 59.2129 74.638 58.7689 74.638C58.2889 74.638 57.8629 74.866 57.4909 75.322C57.1189 75.766 56.9329 76.498 56.9329 77.518V82H54.5569V72.946H56.9149V74.494C57.1789 73.798 57.5569 73.318 58.0489 73.054C58.5529 72.79 59.0449 72.658 59.5249 72.658C60.1609 72.658 60.7009 72.832 61.1449 73.18C61.6009 73.516 61.9309 74.02 62.1349 74.692C62.3269 74.164 62.5849 73.756 62.9089 73.468C63.2329 73.168 63.5869 72.958 63.9709 72.838C64.3549 72.718 64.7269 72.658 65.0869 72.658C66.0709 72.658 66.8389 72.994 67.3909 73.666C67.9549 74.326 68.2369 75.28 68.2369 76.528V82ZM77.7324 79.246L78.9744 80.704C78.4944 81.22 77.9244 81.616 77.2644 81.892C76.6164 82.156 75.9144 82.288 75.1584 82.288C74.1744 82.288 73.3104 82.084 72.5664 81.676C71.8224 81.268 71.2404 80.704 70.8204 79.984C70.4004 79.252 70.1904 78.418 70.1904 77.482C70.1904 76.558 70.3884 75.736 70.7844 75.016C71.1804 74.284 71.7204 73.708 72.4044 73.288C73.0884 72.868 73.8684 72.658 74.7444 72.658C75.5724 72.658 76.3044 72.862 76.9404 73.27C77.5884 73.678 78.0924 74.242 78.4524 74.962C78.8244 75.67 79.0104 76.48 79.0104 77.392V78.184H72.6564C72.7764 78.88 73.0524 79.426 73.4844 79.822C73.9284 80.218 74.5164 80.416 75.2484 80.416C76.2684 80.416 77.0964 80.026 77.7324 79.246ZM74.7084 74.512C74.1444 74.512 73.6824 74.704 73.3224 75.088C72.9744 75.472 72.7524 76 72.6564 76.672H76.6524C76.5804 75.976 76.3764 75.442 76.0404 75.07C75.7044 74.698 75.2604 74.512 74.7084 74.512ZM90.4528 82H88.3108C86.7148 82 85.9168 81.178 85.9168 79.534V74.854H84.4768V72.946H85.9168V70.552H88.2928V72.946H90.3628V74.854H88.2928V79.12C88.2928 79.744 88.5808 80.056 89.1568 80.056H90.4528V82ZM96.4928 82.288C95.5568 82.288 94.7348 82.084 94.0268 81.676C93.3188 81.256 92.7608 80.686 92.3528 79.966C91.9568 79.234 91.7588 78.4 91.7588 77.464C91.7588 76.528 91.9568 75.7 92.3528 74.98C92.7608 74.248 93.3188 73.678 94.0268 73.27C94.7348 72.862 95.5568 72.658 96.4928 72.658C97.4288 72.658 98.2508 72.862 98.9588 73.27C99.6788 73.678 100.243 74.248 100.651 74.98C101.059 75.7 101.263 76.528 101.263 77.464C101.263 78.4 101.059 79.234 100.651 79.966C100.243 80.686 99.6788 81.256 98.9588 81.676C98.2508 82.084 97.4288 82.288 96.4928 82.288ZM96.4928 80.308C97.1768 80.308 97.7288 80.044 98.1488 79.516C98.5808 78.988 98.7968 78.304 98.7968 77.464C98.7968 76.636 98.5808 75.958 98.1488 75.43C97.7288 74.902 97.1768 74.638 96.4928 74.638C95.8208 74.638 95.2748 74.902 94.8548 75.43C94.4348 75.958 94.2248 76.636 94.2248 77.464C94.2248 78.304 94.4348 78.988 94.8548 79.516C95.2748 80.044 95.8208 80.308 96.4928 80.308ZM116.847 78.256L118.431 79.876C117.879 80.632 117.165 81.226 116.289 81.658C115.413 82.078 114.483 82.288 113.499 82.288C112.575 82.288 111.723 82.126 110.943 81.802C110.163 81.466 109.485 80.998 108.909 80.398C108.333 79.786 107.883 79.072 107.559 78.256C107.247 77.428 107.091 76.528 107.091 75.556C107.091 74.584 107.247 73.69 107.559 72.874C107.883 72.058 108.333 71.35 108.909 70.75C109.497 70.138 110.181 69.67 110.961 69.346C111.753 69.01 112.623 68.842 113.571 68.842C114.555 68.842 115.467 69.052 116.307 69.472C117.159 69.88 117.867 70.474 118.431 71.254L116.847 72.874C116.463 72.274 115.983 71.812 115.407 71.488C114.843 71.152 114.225 70.984 113.553 70.984C112.797 70.984 112.125 71.182 111.537 71.578C110.949 71.962 110.487 72.496 110.151 73.18C109.815 73.864 109.647 74.656 109.647 75.556C109.647 76.456 109.815 77.254 110.151 77.95C110.487 78.634 110.949 79.174 111.537 79.57C112.125 79.954 112.797 80.146 113.553 80.146C114.225 80.146 114.849 79.978 115.425 79.642C116.001 79.306 116.475 78.844 116.847 78.256ZM124.53 82.288C123.594 82.288 122.772 82.084 122.064 81.676C121.356 81.256 120.798 80.686 120.39 79.966C119.994 79.234 119.796 78.4 119.796 77.464C119.796 76.528 119.994 75.7 120.39 74.98C120.798 74.248 121.356 73.678 122.064 73.27C122.772 72.862 123.594 72.658 124.53 72.658C125.466 72.658 126.288 72.862 126.996 73.27C127.716 73.678 128.28 74.248 128.688 74.98C129.096 75.7 129.3 76.528 129.3 77.464C129.3 78.4 129.096 79.234 128.688 79.966C128.28 80.686 127.716 81.256 126.996 81.676C126.288 82.084 125.466 82.288 124.53 82.288ZM124.53 80.308C125.214 80.308 125.766 80.044 126.186 79.516C126.618 78.988 126.834 78.304 126.834 77.464C126.834 76.636 126.618 75.958 126.186 75.43C125.766 74.902 125.214 74.638 124.53 74.638C123.858 74.638 123.312 74.902 122.892 75.43C122.472 75.958 122.262 76.636 122.262 77.464C122.262 78.304 122.472 78.988 122.892 79.516C123.312 80.044 123.858 80.308 124.53 80.308ZM137.997 82V80.866C137.709 81.298 137.319 81.646 136.827 81.91C136.347 82.162 135.795 82.288 135.171 82.288C134.391 82.288 133.677 82.084 133.029 81.676C132.393 81.268 131.883 80.704 131.499 79.984C131.115 79.252 130.923 78.412 130.923 77.464C130.923 76.516 131.115 75.682 131.499 74.962C131.895 74.242 132.417 73.678 133.065 73.27C133.713 72.862 134.427 72.658 135.207 72.658C135.831 72.658 136.377 72.79 136.845 73.054C137.313 73.306 137.691 73.654 137.979 74.098V69.04H140.355V82H137.997ZM133.389 77.464C133.389 78.292 133.605 78.976 134.037 79.516C134.481 80.044 135.063 80.308 135.783 80.308C136.299 80.308 136.755 80.164 137.151 79.876C137.547 79.576 137.823 79.186 137.979 78.706V77.536C137.979 76.648 137.769 75.946 137.349 75.43C136.929 74.902 136.383 74.638 135.711 74.638C135.015 74.638 134.451 74.908 134.019 75.448C133.599 75.976 133.389 76.648 133.389 77.464ZM151.167 82H148.809V80.848C148.521 81.304 148.143 81.658 147.675 81.91C147.219 82.162 146.691 82.288 146.091 82.288C145.107 82.288 144.321 81.976 143.733 81.352C143.145 80.716 142.851 79.798 142.851 78.598V72.946H145.227V78.346C145.227 78.994 145.365 79.486 145.641 79.822C145.929 80.146 146.319 80.308 146.811 80.308C147.255 80.308 147.657 80.17 148.017 79.894C148.377 79.606 148.635 79.228 148.791 78.76V72.946H151.167V82ZM155.211 82H152.457L155.733 77.302L152.727 72.946H155.481L157.245 75.898L159.027 72.946H161.781L158.775 77.302L162.033 82H159.279L157.245 78.742L155.211 82Z" fill="#000624"/>
<path d="M209.298 64H172.124C169.963 64 168.211 65.6531 168.211 67.6923V84.3077C168.211 86.3469 169.963 88 172.124 88H209.298C211.459 88 213.211 86.3469 213.211 84.3077V67.6923C213.211 65.6531 211.459 64 209.298 64Z" fill="#000624"/>
<path d="M176.828 80.42V72.42H180.253C180.773 72.42 181.23 72.5095 181.623 72.6885C182.017 72.8601 182.32 73.1025 182.533 73.4158C182.753 73.7291 182.864 74.0946 182.864 74.5123C182.864 74.8778 182.765 75.206 182.568 75.4969C182.379 75.7878 182.115 76.019 181.777 76.1906C182.218 76.3622 182.564 76.6121 182.816 76.9403C183.068 77.2685 183.194 77.6563 183.194 78.1039C183.194 78.5664 183.072 78.9729 182.828 79.3235C182.592 79.6741 182.257 79.9463 181.824 80.1403C181.399 80.3267 180.899 80.42 180.324 80.42H176.828ZM180.159 73.6843H178.422V75.6983H180.159C180.505 75.6983 180.773 75.6088 180.962 75.4298C181.159 75.2433 181.257 74.9897 181.257 74.6689C181.257 74.3631 181.159 74.1244 180.962 73.9529C180.773 73.7738 180.505 73.6843 180.159 73.6843ZM178.422 79.1556H180.336C180.722 79.1556 181.025 79.0587 181.245 78.8647C181.474 78.6633 181.588 78.3836 181.588 78.0256C181.588 77.6825 181.474 77.4177 181.245 77.2312C181.025 77.0372 180.722 76.9403 180.336 76.9403H178.422V79.1556ZM190.502 80.42H184.88V72.42H190.502V73.6955H186.474V75.7319H190.29V77.0074H186.474V79.1445H190.502V80.42ZM195.478 80.42H193.895V73.7179H191.426V72.42H197.947V73.7179H195.478V80.42ZM205.828 80.42H204.103L203.453 78.6633H200.063L199.402 80.42H197.748L200.902 72.42H202.674L205.828 80.42ZM200.536 77.3878H202.981L201.752 74.1095L200.536 77.3878Z" fill="white"/>
<g filter="url(#filter0_d_2_37)">
<path fill-rule="evenodd" clip-rule="evenodd" d="M134.359 19.6822C134.359 19.0326 134.36 18.3831 134.356 17.7334C134.352 17.1862 134.346 16.639 134.331 16.092C134.299 14.8998 134.229 13.6974 134.017 12.5185C133.802 11.3226 133.45 10.2095 132.897 9.12296C132.353 8.05498 131.643 7.07767 130.795 6.23041C129.947 5.38313 128.969 4.67298 127.901 4.12931C126.813 3.57582 125.699 3.2248 124.502 3.00985C123.323 2.79814 122.12 2.72795 120.928 2.69574C120.381 2.68093 119.833 2.67469 119.286 2.6713C118.636 2.66732 117.986 2.66765 117.336 2.66765L109.789 2.64062H104.144L96.731 2.66765C96.0798 2.66765 95.4286 2.66732 94.7773 2.6713C94.2287 2.67469 93.6802 2.68093 93.1318 2.69574C91.9369 2.72795 90.7314 2.79821 89.5496 3.01018C88.3507 3.22507 87.2349 3.57596 86.1456 4.12905C85.075 4.67279 84.0953 5.38299 83.2459 6.23041C82.3965 7.07758 81.6846 8.0547 81.1396 9.12249C80.5847 10.2096 80.2329 11.3233 80.0173 12.5199C79.8051 13.6983 79.7348 14.9004 79.7024 16.092C79.6877 16.639 79.6813 17.1862 79.678 17.7334C79.674 18.3831 79.6406 19.1902 79.6406 19.8398L79.6408 27.1504L79.6406 32.8553L79.6744 40.3214C79.6744 40.9718 79.6741 41.6223 79.678 42.2729C79.6813 42.8208 79.6877 43.3687 79.7025 43.9165C79.7348 45.1102 79.8052 46.3143 80.0177 47.4948C80.2332 48.6923 80.5849 49.807 81.1393 50.895C81.6844 51.9645 82.3965 52.943 83.2459 53.7915C84.0952 54.64 85.0746 55.3511 86.1452 55.8955C87.2349 56.4497 88.3514 56.8013 89.5509 57.0165C90.7322 57.2285 91.9373 57.2988 93.1318 57.331C93.6802 57.3458 94.2287 57.3521 94.7774 57.3555C95.4286 57.3594 96.0798 57.3591 96.731 57.3591L104.211 57.3593H109.87L117.336 57.3591C117.986 57.3591 118.636 57.3594 119.286 57.3555C119.833 57.3521 120.381 57.3458 120.928 57.331C122.121 57.2987 123.324 57.2283 124.503 57.0162C125.7 56.801 126.813 56.4496 127.901 55.8957C128.969 55.3513 129.947 54.6401 130.795 53.7915C131.642 52.9432 132.353 51.9648 132.897 50.8954C133.451 49.8069 133.802 48.6917 134.017 47.4935C134.229 46.3134 134.299 45.1097 134.331 43.9165C134.346 43.3686 134.352 42.8207 134.356 42.2729C134.36 41.6223 134.359 40.9718 134.359 40.3214C134.359 40.3214 134.359 32.9872 134.359 32.8553V27.1445C134.359 27.0471 134.359 19.6822 134.359 19.6822Z" fill="url(#paint0_linear_2_37)"/>
</g>
<mask id="mask0_2_37" style="mask-type:luminance" maskUnits="userSpaceOnUse" x="79" y="2" width="56" height="56">
<path fill-rule="evenodd" clip-rule="evenodd" d="M134.359 19.6822C134.359 19.0326 134.36 18.3831 134.356 17.7334C134.352 17.1862 134.346 16.639 134.331 16.092C134.299 14.8998 134.229 13.6974 134.017 12.5185C133.802 11.3226 133.45 10.2095 132.897 9.12296C132.353 8.05498 131.643 7.07767 130.795 6.23041C129.947 5.38313 128.969 4.67298 127.901 4.12931C126.813 3.57582 125.699 3.2248 124.502 3.00985C123.323 2.79814 122.12 2.72795 120.928 2.69574C120.381 2.68093 119.833 2.67469 119.286 2.6713C118.636 2.66732 117.986 2.66765 117.336 2.66765L109.789 2.64062H104.144L96.731 2.66765C96.0798 2.66765 95.4286 2.66732 94.7773 2.6713C94.2287 2.67469 93.6802 2.68093 93.1318 2.69574C91.9369 2.72795 90.7314 2.79821 89.5496 3.01018C88.3507 3.22507 87.2349 3.57596 86.1456 4.12905C85.075 4.67279 84.0953 5.38299 83.2459 6.23041C82.3965 7.07758 81.6846 8.0547 81.1396 9.12249C80.5847 10.2096 80.2329 11.3233 80.0173 12.5199C79.8051 13.6983 79.7348 14.9004 79.7024 16.092C79.6877 16.639 79.6813 17.1862 79.678 17.7334C79.674 18.3831 79.6406 19.1902 79.6406 19.8398L79.6408 27.1504L79.6406 32.8553L79.6744 40.3214C79.6744 40.9718 79.6741 41.6223 79.678 42.2729C79.6813 42.8208 79.6877 43.3687 79.7025 43.9165C79.7348 45.1102 79.8052 46.3143 80.0177 47.4948C80.2332 48.6923 80.5849 49.807 81.1393 50.895C81.6844 51.9645 82.3965 52.943 83.2459 53.7915C84.0952 54.64 85.0746 55.3511 86.1452 55.8955C87.2349 56.4497 88.3514 56.8013 89.5509 57.0165C90.7322 57.2285 91.9373 57.2988 93.1318 57.331C93.6802 57.3458 94.2287 57.3521 94.7774 57.3555C95.4286 57.3594 96.0798 57.3591 96.731 57.3591L104.211 57.3593H109.87L117.336 57.3591C117.986 57.3591 118.636 57.3594 119.286 57.3555C119.833 57.3521 120.381 57.3458 120.928 57.331C122.121 57.2987 123.324 57.2283 124.503 57.0162C125.7 56.801 126.813 56.4496 127.901 55.8957C128.969 55.3513 129.947 54.6401 130.795 53.7915C131.642 52.9432 132.353 51.9648 132.897 50.8954C133.451 49.8069 133.802 48.6917 134.017 47.4935C134.229 46.3134 134.299 45.1097 134.331 43.9165C134.346 43.3686 134.352 42.8207 134.356 42.2729C134.36 41.6223 134.359 40.9718 134.359 40.3214C134.359 40.3214 134.359 32.9872 134.359 32.8553V27.1445C134.359 27.0471 134.359 19.6822 134.359 19.6822Z" fill="white"/>
</mask>
<g mask="url(#mask0_2_37)">
<g filter="url(#filter1_dd_2_37)">
<path fill-rule="evenodd" clip-rule="evenodd" d="M118.953 21.6329C118.953 23.3511 118.59 24.9846 117.937 26.4611C117.89 26.5686 117.953 26.6937 118.067 26.7201C123.368 27.9441 127.32 32.6941 127.32 38.3671C127.32 44.9687 121.969 50.3203 115.367 50.3203H98.6329C92.0313 50.3203 86.6797 44.9687 86.6797 38.3671C86.6797 32.6944 90.6312 27.9446 95.9318 26.7203C96.0464 26.6939 96.1093 26.5688 96.0617 26.4613C95.409 24.9848 95.0464 23.3512 95.0464 21.6329C95.0464 15.0313 100.398 9.67969 107 9.67969C113.601 9.67969 118.953 15.0313 118.953 21.6329ZM112.522 25.303L108.366 23.0594C107.502 22.593 106.461 22.594 105.598 23.0623L101.465 25.3041C100.632 25.7564 100.632 26.9531 101.465 27.4055L105.598 29.6473C106.461 30.1155 107.502 30.1166 108.366 29.6502L112.522 27.4066C113.358 26.955 113.358 25.7546 112.522 25.303Z" fill="url(#paint1_linear_2_37)"/>
</g>
</g>
</g>
<defs>
<filter id="filter0_d_2_37" x="78.9961" y="2.64062" width="56.0078" height="56.0078" filterUnits="userSpaceOnUse" color-interpolation-filters="sRGB">
<feFlood flood-opacity="0" result="BackgroundImageFix"/>
<feColorMatrix in="SourceAlpha" type="matrix" values="0 0 0 0 0 0 0 0 0 0 0 0 0 0 0 0 0 0 127 0" result="hardAlpha"/>
<feOffset dy="0.644531"/>
<feGaussianBlur stdDeviation="0.322266"/>
<feColorMatrix type="matrix" values="0 0 0 0 0 0 0 0 0 0 0 0 0 0 0 0 0 0 0.3 0"/>
<feBlend mode="normal" in2="BackgroundImageFix" result="effect1_dropShadow_2_37"/>
<feBlend mode="normal" in="SourceGraphic" in2="effect1_dropShadow_2_37" result="shape"/>
</filter>
<filter id="filter1_dd_2_37" x="86.293" y="9.55078" width="41.4141" height="41.414" filterUnits="userSpaceOnUse" color-interpolation-filters="sRGB">
<feFlood flood-opacity="0" result="BackgroundImageFix"/>
<feColorMatrix in="SourceAlpha" type="matrix" values="0 0 0 0 0 0 0 0 0 0 0 0 0 0 0 0 0 0 127 0" result="hardAlpha"/>
<feOffset dy="0.257812"/>
<feGaussianBlur stdDeviation="0.128906"/>
<feComposite in2="hardAlpha" operator="out"/>
<feColorMatrix type="matrix" values="0 0 0 0 0 0 0 0 0 0 0 0 0 0 0 0 0 0 0.25 0"/>
<feBlend mode="normal" in2="BackgroundImageFix" result="effect1_dropShadow_2_37"/>
<feColorMatrix in="SourceAlpha" type="matrix" values="0 0 0 0 0 0 0 0 0 0 0 0 0 0 0 0 0 0 127 0" result="hardAlpha"/>
<feOffset dy="0.257812"/>
<feGaussianBlur stdDeviation="0.193359"/>
<feComposite in2="hardAlpha" operator="out"/>
<feColorMatrix type="matrix" values="0 0 0 0 1 0 0 0 0 1 0 0 0 0 1 0 0 0 1 0"/>
<feBlend mode="normal" in2="effect1_dropShadow_2_37" result="effect2_dropShadow_2_37"/>
<feBlend mode="normal" in="SourceGraphic" in2="effect2_dropShadow_2_37" result="shape"/>
</filter>
<linearGradient id="paint0_linear_2_37" x1="126.351" y1="49.5715" x2="73.24" y2="-3.87139" gradientUnits="userSpaceOnUse">
<stop stop-color="#4B47FF"/>
<stop offset="1" stop-color="#39DBB0"/>
</linearGradient>
<linearGradient id="paint1_linear_2_37" x1="107" y1="9.67969" x2="107" y2="50.3203" gradientUnits="userSpaceOnUse">
<stop stop-color="white"/>
<stop offset="1" stop-color="#D9D9D9"/>
</linearGradient>
<clipPath id="clip0_2_37">
<rect width="214" height="90" fill="white"/>
</clipPath>
</defs>
</svg>
