<svg width="214" height="90" viewBox="0 0 214 90" fill="none" xmlns="http://www.w3.org/2000/svg">
<rect x="83" width="48" height="48" rx="6" fill="#495CEF"/>
<path d="M115.08 28.8393L117.429 31.0107C116.424 32.3106 115.154 33.3446 113.618 34.1127C112.111 34.8513 110.398 35.2206 108.477 35.2206C106.262 35.2206 104.282 34.7183 102.539 33.7139C100.826 32.7094 99.4668 31.3357 98.4624 29.5927C97.4875 27.8497 97 25.8555 97 23.6103C97 21.365 97.4875 19.3709 98.4624 17.6279C99.4668 15.8849 100.841 14.5111 102.584 13.5067C104.327 12.5022 106.306 12 108.522 12C110.442 12 112.155 12.3841 113.662 13.1522C115.169 13.8907 116.424 14.91 117.429 16.2098L115.08 18.3812C114.371 17.3177 113.485 16.4757 112.421 15.8553C111.358 15.2054 110.058 14.8804 108.522 14.8804C106.926 14.8804 105.523 15.2497 104.312 15.9883C103.101 16.7268 102.155 17.7608 101.476 19.0903C100.796 20.3901 100.456 21.8968 100.456 23.6103C100.456 25.3238 100.796 26.8452 101.476 28.1746C102.155 29.4745 103.101 30.4937 104.312 31.2323C105.523 31.9709 106.926 32.3402 108.522 32.3402C110.058 32.3402 111.358 32.03 112.421 31.4096C113.485 30.7596 114.371 29.9029 115.08 28.8393Z" fill="white"/>
<path d="M14.3435 84H11.7155L9.26747 74.73L6.81947 84H4.20947L0.789469 71.13H3.39947L5.61347 80.814L8.20547 71.13H10.3835L12.9935 80.958L15.2255 71.13H17.7455L14.3435 84ZM25.4204 81.246L26.6624 82.704C26.1824 83.22 25.6124 83.616 24.9524 83.892C24.3044 84.156 23.6024 84.288 22.8464 84.288C21.8624 84.288 20.9984 84.084 20.2544 83.676C19.5104 83.268 18.9284 82.704 18.5084 81.984C18.0884 81.252 17.8784 80.418 17.8784 79.482C17.8784 78.558 18.0764 77.736 18.4724 77.016C18.8684 76.284 19.4084 75.708 20.0924 75.288C20.7764 74.868 21.5564 74.658 22.4324 74.658C23.2604 74.658 23.9924 74.862 24.6284 75.27C25.2764 75.678 25.7804 76.242 26.1404 76.962C26.5124 77.67 26.6984 78.48 26.6984 79.392V80.184H20.3444C20.4644 80.88 20.7404 81.426 21.1724 81.822C21.6164 82.218 22.2044 82.416 22.9364 82.416C23.9564 82.416 24.7844 82.026 25.4204 81.246ZM22.3964 76.512C21.8324 76.512 21.3704 76.704 21.0104 77.088C20.6624 77.472 20.4404 78 20.3444 78.672H24.3404C24.2684 77.976 24.0644 77.442 23.7284 77.07C23.3924 76.698 22.9484 76.512 22.3964 76.512ZM31.1638 84H28.7878V71.04H31.1638V84ZM40.3512 81.048L41.8272 82.524C41.3712 83.076 40.8132 83.508 40.1532 83.82C39.4932 84.132 38.7792 84.288 38.0112 84.288C37.0872 84.288 36.2652 84.084 35.5452 83.676C34.8372 83.256 34.2792 82.686 33.8712 81.966C33.4632 81.234 33.2592 80.4 33.2592 79.464C33.2592 78.516 33.4572 77.682 33.8532 76.962C34.2612 76.242 34.8192 75.678 35.5272 75.27C36.2472 74.862 37.0752 74.658 38.0112 74.658C39.6192 74.658 40.8912 75.246 41.8272 76.422L40.3332 77.898C39.7452 77.058 39.0192 76.638 38.1552 76.638C37.4472 76.638 36.8652 76.896 36.4092 77.412C35.9532 77.928 35.7252 78.612 35.7252 79.464C35.7252 80.316 35.9532 81.006 36.4092 81.534C36.8772 82.05 37.4652 82.308 38.1732 82.308C39.0612 82.308 39.7872 81.888 40.3512 81.048ZM47.4854 84.288C46.5494 84.288 45.7274 84.084 45.0194 83.676C44.3114 83.256 43.7534 82.686 43.3454 81.966C42.9494 81.234 42.7514 80.4 42.7514 79.464C42.7514 78.528 42.9494 77.7 43.3454 76.98C43.7534 76.248 44.3114 75.678 45.0194 75.27C45.7274 74.862 46.5494 74.658 47.4854 74.658C48.4214 74.658 49.2434 74.862 49.9514 75.27C50.6714 75.678 51.2354 76.248 51.6434 76.98C52.0514 77.7 52.2554 78.528 52.2554 79.464C52.2554 80.4 52.0514 81.234 51.6434 81.966C51.2354 82.686 50.6714 83.256 49.9514 83.676C49.2434 84.084 48.4214 84.288 47.4854 84.288ZM47.4854 82.308C48.1694 82.308 48.7214 82.044 49.1414 81.516C49.5734 80.988 49.7894 80.304 49.7894 79.464C49.7894 78.636 49.5734 77.958 49.1414 77.43C48.7214 76.902 48.1694 76.638 47.4854 76.638C46.8134 76.638 46.2674 76.902 45.8474 77.43C45.4274 77.958 45.2174 78.636 45.2174 79.464C45.2174 80.304 45.4274 80.988 45.8474 81.516C46.2674 82.044 46.8134 82.308 47.4854 82.308ZM68.0264 84H65.6504V78.69C65.6504 78.006 65.5184 77.496 65.2544 77.16C65.0024 76.812 64.6544 76.638 64.2104 76.638C63.7304 76.638 63.2984 76.866 62.9144 77.322C62.5424 77.766 62.3564 78.498 62.3564 79.518V84H59.9804V78.69C59.9804 78.006 59.8544 77.496 59.6024 77.16C59.3504 76.812 59.0024 76.638 58.5584 76.638C58.0784 76.638 57.6524 76.866 57.2804 77.322C56.9084 77.766 56.7224 78.498 56.7224 79.518V84H54.3464V74.946H56.7044V76.494C56.9684 75.798 57.3464 75.318 57.8384 75.054C58.3424 74.79 58.8344 74.658 59.3144 74.658C59.9504 74.658 60.4904 74.832 60.9344 75.18C61.3904 75.516 61.7204 76.02 61.9244 76.692C62.1164 76.164 62.3744 75.756 62.6984 75.468C63.0224 75.168 63.3764 74.958 63.7604 74.838C64.1444 74.718 64.5164 74.658 64.8764 74.658C65.8604 74.658 66.6284 74.994 67.1804 75.666C67.7444 76.326 68.0264 77.28 68.0264 78.528V84ZM77.5219 81.246L78.7639 82.704C78.2839 83.22 77.7139 83.616 77.0539 83.892C76.4059 84.156 75.7039 84.288 74.9479 84.288C73.9639 84.288 73.0999 84.084 72.3559 83.676C71.6119 83.268 71.0299 82.704 70.6099 81.984C70.1899 81.252 69.9799 80.418 69.9799 79.482C69.9799 78.558 70.1779 77.736 70.5739 77.016C70.9699 76.284 71.5099 75.708 72.1939 75.288C72.8779 74.868 73.6579 74.658 74.5339 74.658C75.3619 74.658 76.0939 74.862 76.7299 75.27C77.3779 75.678 77.8819 76.242 78.2419 76.962C78.6139 77.67 78.7999 78.48 78.7999 79.392V80.184H72.4459C72.5659 80.88 72.8419 81.426 73.2739 81.822C73.7179 82.218 74.3059 82.416 75.0379 82.416C76.0579 82.416 76.8859 82.026 77.5219 81.246ZM74.4979 76.512C73.9339 76.512 73.4719 76.704 73.1119 77.088C72.7639 77.472 72.5419 78 72.4459 78.672H76.4419C76.3699 77.976 76.1659 77.442 75.8299 77.07C75.4939 76.698 75.0499 76.512 74.4979 76.512ZM90.2423 84H88.1003C86.5043 84 85.7063 83.178 85.7063 81.534V76.854H84.2663V74.946H85.7063V72.552H88.0823V74.946H90.1523V76.854H88.0823V81.12C88.0823 81.744 88.3703 82.056 88.9463 82.056H90.2423V84ZM96.2823 84.288C95.3463 84.288 94.5243 84.084 93.8163 83.676C93.1083 83.256 92.5503 82.686 92.1423 81.966C91.7463 81.234 91.5483 80.4 91.5483 79.464C91.5483 78.528 91.7463 77.7 92.1423 76.98C92.5503 76.248 93.1083 75.678 93.8163 75.27C94.5243 74.862 95.3463 74.658 96.2823 74.658C97.2183 74.658 98.0403 74.862 98.7483 75.27C99.4683 75.678 100.032 76.248 100.44 76.98C100.848 77.7 101.052 78.528 101.052 79.464C101.052 80.4 100.848 81.234 100.44 81.966C100.032 82.686 99.4683 83.256 98.7483 83.676C98.0403 84.084 97.2183 84.288 96.2823 84.288ZM96.2823 82.308C96.9663 82.308 97.5183 82.044 97.9383 81.516C98.3703 80.988 98.5863 80.304 98.5863 79.464C98.5863 78.636 98.3703 77.958 97.9383 77.43C97.5183 76.902 96.9663 76.638 96.2823 76.638C95.6103 76.638 95.0643 76.902 94.6443 77.43C94.2243 77.958 94.0143 78.636 94.0143 79.464C94.0143 80.304 94.2243 80.988 94.6443 81.516C95.0643 82.044 95.6103 82.308 96.2823 82.308ZM116.636 80.256L118.22 81.876C117.668 82.632 116.954 83.226 116.078 83.658C115.202 84.078 114.272 84.288 113.288 84.288C112.364 84.288 111.512 84.126 110.732 83.802C109.952 83.466 109.274 82.998 108.698 82.398C108.122 81.786 107.672 81.072 107.348 80.256C107.036 79.428 106.88 78.528 106.88 77.556C106.88 76.584 107.036 75.69 107.348 74.874C107.672 74.058 108.122 73.35 108.698 72.75C109.286 72.138 109.97 71.67 110.75 71.346C111.542 71.01 112.412 70.842 113.36 70.842C114.344 70.842 115.256 71.052 116.096 71.472C116.948 71.88 117.656 72.474 118.22 73.254L116.636 74.874C116.252 74.274 115.772 73.812 115.196 73.488C114.632 73.152 114.014 72.984 113.342 72.984C112.586 72.984 111.914 73.182 111.326 73.578C110.738 73.962 110.276 74.496 109.94 75.18C109.604 75.864 109.436 76.656 109.436 77.556C109.436 78.456 109.604 79.254 109.94 79.95C110.276 80.634 110.738 81.174 111.326 81.57C111.914 81.954 112.586 82.146 113.342 82.146C114.014 82.146 114.638 81.978 115.214 81.642C115.79 81.306 116.264 80.844 116.636 80.256ZM124.319 84.288C123.383 84.288 122.561 84.084 121.853 83.676C121.145 83.256 120.587 82.686 120.179 81.966C119.783 81.234 119.585 80.4 119.585 79.464C119.585 78.528 119.783 77.7 120.179 76.98C120.587 76.248 121.145 75.678 121.853 75.27C122.561 74.862 123.383 74.658 124.319 74.658C125.255 74.658 126.077 74.862 126.785 75.27C127.505 75.678 128.069 76.248 128.477 76.98C128.885 77.7 129.089 78.528 129.089 79.464C129.089 80.4 128.885 81.234 128.477 81.966C128.069 82.686 127.505 83.256 126.785 83.676C126.077 84.084 125.255 84.288 124.319 84.288ZM124.319 82.308C125.003 82.308 125.555 82.044 125.975 81.516C126.407 80.988 126.623 80.304 126.623 79.464C126.623 78.636 126.407 77.958 125.975 77.43C125.555 76.902 125.003 76.638 124.319 76.638C123.647 76.638 123.101 76.902 122.681 77.43C122.261 77.958 122.051 78.636 122.051 79.464C122.051 80.304 122.261 80.988 122.681 81.516C123.101 82.044 123.647 82.308 124.319 82.308ZM137.786 84V82.866C137.498 83.298 137.108 83.646 136.616 83.91C136.136 84.162 135.584 84.288 134.96 84.288C134.18 84.288 133.466 84.084 132.818 83.676C132.182 83.268 131.672 82.704 131.288 81.984C130.904 81.252 130.712 80.412 130.712 79.464C130.712 78.516 130.904 77.682 131.288 76.962C131.684 76.242 132.206 75.678 132.854 75.27C133.502 74.862 134.216 74.658 134.996 74.658C135.62 74.658 136.166 74.79 136.634 75.054C137.102 75.306 137.48 75.654 137.768 76.098V71.04H140.144V84H137.786ZM133.178 79.464C133.178 80.292 133.394 80.976 133.826 81.516C134.27 82.044 134.852 82.308 135.572 82.308C136.088 82.308 136.544 82.164 136.94 81.876C137.336 81.576 137.612 81.186 137.768 80.706V79.536C137.768 78.648 137.558 77.946 137.138 77.43C136.718 76.902 136.172 76.638 135.5 76.638C134.804 76.638 134.24 76.908 133.808 77.448C133.388 77.976 133.178 78.648 133.178 79.464ZM150.956 84H148.598V82.848C148.31 83.304 147.932 83.658 147.464 83.91C147.008 84.162 146.48 84.288 145.88 84.288C144.896 84.288 144.11 83.976 143.522 83.352C142.934 82.716 142.64 81.798 142.64 80.598V74.946H145.016V80.346C145.016 80.994 145.154 81.486 145.43 81.822C145.718 82.146 146.108 82.308 146.6 82.308C147.044 82.308 147.446 82.17 147.806 81.894C148.166 81.606 148.424 81.228 148.58 80.76V74.946H150.956V84ZM155 84H152.246L155.522 79.302L152.516 74.946H155.27L157.034 77.898L158.816 74.946H161.57L158.564 79.302L161.822 84H159.068L157.034 80.742L155 84Z" fill="#000624"/>
<rect x="168" y="64" width="46" height="26" rx="4" fill="#000624"/>
<path d="M176.617 82V73.42H180.097C180.625 73.42 181.089 73.516 181.489 73.708C181.889 73.892 182.197 74.152 182.413 74.488C182.637 74.824 182.749 75.216 182.749 75.664C182.749 76.056 182.649 76.408 182.449 76.72C182.257 77.032 181.989 77.28 181.645 77.464C182.093 77.648 182.445 77.916 182.701 78.268C182.957 78.62 183.085 79.036 183.085 79.516C183.085 80.012 182.961 80.448 182.713 80.824C182.473 81.2 182.133 81.492 181.693 81.7C181.261 81.9 180.753 82 180.169 82H176.617ZM180.001 74.776H178.237V76.936H180.001C180.353 76.936 180.625 76.84 180.817 76.648C181.017 76.448 181.117 76.176 181.117 75.832C181.117 75.504 181.017 75.248 180.817 75.064C180.625 74.872 180.353 74.776 180.001 74.776ZM178.237 80.644H180.181C180.573 80.644 180.881 80.54 181.105 80.332C181.337 80.116 181.453 79.816 181.453 79.432C181.453 79.064 181.337 78.78 181.105 78.58C180.881 78.372 180.573 78.268 180.181 78.268H178.237V80.644ZM190.509 82H184.797V73.42H190.509V74.788H186.417V76.972H190.293V78.34H186.417V80.632H190.509V82ZM195.564 82H193.956V74.812H191.448V73.42H198.072V74.812H195.564V82ZM206.078 82H204.326L203.666 80.116H200.222L199.55 82H197.87L201.074 73.42H202.874L206.078 82ZM200.702 78.748H203.186L201.938 75.232L200.702 78.748Z" fill="white"/>
</svg>
