<svg width="48" height="48" viewBox="0 0 48 48" fill="none" xmlns="http://www.w3.org/2000/svg">
<rect width="48" height="48" rx="6" fill="#495CEF"/>
<path fill-rule="evenodd" clip-rule="evenodd" d="M153.442 95.0806C153.442 102.507 151.006 109.366 146.887 114.907C162.624 117.02 174.757 130.461 174.757 146.727C174.757 164.46 160.336 178.835 142.547 178.835H97.453C79.6638 178.835 65.2428 164.46 65.2428 146.727C65.2428 130.458 77.3797 117.016 93.1197 114.906C89.0008 109.365 86.5647 102.507 86.5647 95.0806C86.5647 76.6713 101.536 61.7476 120.003 61.7476C138.471 61.7476 153.442 76.6713 153.442 95.0806ZM136.521 112.205L123.878 104.939C121.451 103.544 118.461 103.547 116.036 104.948L103.475 112.203C101.908 113.107 101.912 115.364 103.482 116.262L116.102 123.487C118.518 124.87 121.49 124.87 123.907 123.487L136.518 116.267C138.09 115.367 138.092 113.108 136.521 112.205Z" fill="white"/>
</svg>
